<svg width="66" height="66" viewBox="0 0 66 66" fill="none" xmlns="http://www.w3.org/2000/svg">
<g clip-path="url(#clip0)">
<path fill-rule="evenodd" clip-rule="evenodd" d="M24.02 36.99H29.46V45.4L41.33 30.56H35.89V22.15L24.02 36.99Z" fill="#C92626"/>
<path d="M32.68 65.36C14.66 65.36 0 50.7 0 32.68C0 14.66 14.66 0 32.68 0C50.7 0 65.36 14.66 65.36 32.68C65.36 50.7 50.7 65.36 32.68 65.36ZM32.68 3C16.31 3 3 16.31 3 32.68C3 49.05 16.31 62.36 32.68 62.36C49.05 62.36 62.36 49.05 62.36 32.68C62.36 16.31 49.04 3 32.68 3Z" fill="#F2F2F2"/>
<path d="M32.68 53.63C21.13 53.63 11.73 44.23 11.73 32.68C11.73 21.13 21.13 11.73 32.68 11.73C44.23 11.73 53.63 21.13 53.63 32.68C53.63 44.23 44.23 53.63 32.68 53.63ZM32.68 14.73C22.78 14.73 14.73 22.78 14.73 32.68C14.73 42.58 22.78 50.63 32.68 50.63C42.58 50.63 50.63 42.58 50.63 32.68C50.63 22.78 42.58 14.73 32.68 14.73Z" fill="#F2F2F2"/>
</g>
<defs>
<clipPath id="clip0">
<rect width="65.36" height="65.36" fill="white"/>
</clipPath>
</defs>
</svg>
